<?xml version="1.0" encoding="utf-8"?>
<!-- Generator: Adobe Illustrator 22.1.0, SVG Export Plug-In . SVG Version: 6.00 Build 0)  -->
<svg version="1.1" id="Ebene_1" xmlns="http://www.w3.org/2000/svg" xmlns:xlink="http://www.w3.org/1999/xlink" x="0px" y="0px"
	 viewBox="0 0 1753.4 659.6" style="enable-background:new 0 0 1753.4 659.6;" xml:space="preserve">
<style type="text/css">
	.st0{fill:#0099A8;}
	.st1{fill-rule:evenodd;clip-rule:evenodd;fill:#0099A8;}
	.st2{fill:#3D3935;}
	.st3{fill:#FFFFFF;}
</style>
<g>
	<g>
		<g>
			<g>
				<g>
					<path class="st0" d="M886.9,379.6c0,42.4,29.2,47.9,56.9,47.9h170.7V197.7h-60.7l0.1,184.4H943.9V197.7h-56.9V379.6z"/>
					<path class="st0" d="M1300.8,198.2"/>
					<path class="st0" d="M1388.6,382.4c0,0,119.1-109,140.4-129.2c21.3-20.2,9.8-54.8-21.7-54.9h-126l-52.5,45h141.2l-155.8,139.4
						V428h226.4v-45.6H1388.6z"/>
					<g>
						<path class="st1" d="M1577.3,140.8c-13.2,0-23.9,10.7-23.9,23.9c0,13.2,10.7,23.9,23.9,23.9c13.2,0,23.9-10.7,23.9-23.9
							C1601.2,151.5,1590.5,140.8,1577.3,140.8z M1577.3,185.6c-11.5,0-20.9-9.3-20.9-20.9c0-11.5,9.3-20.9,20.9-20.9
							c11.5,0,20.9,9.3,20.9,20.9C1598.2,176.2,1588.8,185.6,1577.3,185.6z"/>
						<path class="st0" d="M1587,178.1h-4l-6-12.2h-4.3v12.2h-3.8v-28.3h8.3c2.7,0,4.8,0.6,6.5,1.9c1.6,1.3,2.5,3.3,2.5,6.2
							c0,2.2-0.5,3.9-1.6,5.1c-1.1,1.2-2.4,2-3.8,2.3L1587,178.1L1587,178.1z M1582.4,157.9c0-1.5-0.5-2.8-1.4-3.6
							c-0.9-0.9-2.4-1.3-4.5-1.3h-3.6v9.8h4.6c1.3,0,2.5-0.4,3.5-1.1C1581.9,160.9,1582.4,159.7,1582.4,157.9L1582.4,157.9z"/>
					</g>
					<path class="st0" d="M814.1,198.2L814.1,198.2l-180.1,0v229.6h56.9v-184h113.7v184h56.9v-182
						C861.5,208.2,838.6,199.6,814.1,198.2z"/>
					<path class="st0" d="M1285.5,243.4l52-45h-136.9v-57.6h-56.8v243.6c0,21-1.7,43.7,26.1,43.7h116.3v-45.7h-85.6l0-138.9H1285.5z
						"/>
					<path class="st0" d="M1300.8,198.2"/>
				</g>
				<g>
					<rect x="544.1" y="463.3" class="st0" width="996.5" height="4.3"/>
				</g>
				<path class="st0" d="M350.6,463.4h162.5l-3,4.8l-0.2,0.4l-26.4,42.3c-4.2,6.7-11.2,10.7-18.8,10.7H290.2
					c-15.4,0-29.6-8.2-37.3-21.5l-94-162c-1.9-3.3-3.4-6.7-4.4-10.3c-3.1-10.1-2.9-21,0.6-31.1c1-2.9,2.3-5.7,3.8-8.4l84.1-164.4
					c6.9-12,19.7-19.3,33.5-19.3h182c6.5,0,12.7,3,17,8.2l37.9,46.1H352.8L264,312.6l-0.2,0.3l7,12.2L350.6,463.4z"/>
				<g>
					<g>
						<polygon class="st2" points="592.8,313 526.5,427.8 393.9,427.8 370.6,387.3 365,377.6 349.6,350.9 346.5,345.6 327.7,313 
							393.9,198.2 526.5,198.2 549.3,237.7 549.3,237.7 554.9,247.3 568.9,271.7 572,277 						"/>
					</g>
					<g>
						<g>
							<path class="st3" d="M404.1,327.8l-54.5,23.1l-3.1-5.3l55.2-23.4c0.2,1,0.4,2,0.9,2.9C403,326.1,403.5,327,404.1,327.8z"/>
							<circle class="st3" cx="418" cy="318.7" r="14"/>
						</g>
						<g>
							<path class="st3" d="M440.6,358l-70,29.3l-5.6-9.6l71.3-29.8c0.3,1.8,0.9,3.6,1.6,5.4C438.6,354.9,439.5,356.6,440.6,358z"/>
							<g>
								<path class="st3" d="M465.9,365.9c-9.9,0-18.7-5.9-22.5-15c-5.2-12.4,0.7-26.7,13.1-31.9c3-1.3,6.2-1.9,9.4-1.9
									c9.9,0,18.7,5.9,22.5,15c2.5,6,2.5,12.7,0.1,18.7s-7.2,10.7-13.2,13.3C472.3,365.2,469.1,365.9,465.9,365.9
									C465.9,365.9,465.9,365.9,465.9,365.9z"/>
								<path class="st3" d="M465.9,318c9.5,0,18,5.6,21.6,14.4c5,11.9-0.7,25.7-12.6,30.6c-2.9,1.2-5.9,1.8-9,1.8
									c-9.5,0-18-5.6-21.6-14.4c-2.4-5.8-2.4-12.1-0.1-17.9c2.4-5.8,6.9-10.3,12.6-12.7C459.8,318.6,462.8,318,465.9,318
									 M465.9,316c-3.3,0-6.6,0.6-9.8,2c-12.9,5.4-19.1,20.3-13.6,33.2c4.1,9.7,13.5,15.6,23.5,15.6c3.3,0,6.6-0.6,9.8-2
									c12.9-5.4,19.1-20.3,13.6-33.2C485.3,321.9,475.8,316,465.9,316L465.9,316z"/>
							</g>
						</g>
						<g>
							<path class="st3" d="M572,277l-55.5,23c-0.2-1-0.5-1.9-0.9-2.9c-0.4-1-0.9-1.9-1.5-2.7l54.8-22.7L572,277z"/>
							<circle class="st3" cx="500.1" cy="303.6" r="14"/>
						</g>
						<g>
							<path class="st3" d="M554.9,247.3l-73.6,30.7c-0.3-1.8-0.9-3.6-1.6-5.3c-0.7-1.7-1.6-3.4-2.7-4.9l72.3-30.2L554.9,247.3z"/>
							<circle class="st3" cx="451.7" cy="284.5" r="25.4"/>
						</g>
					</g>
				</g>
			</g>
		</g>
	</g>
	<g>
		<path class="st2" d="M675,509.6h-16.2v44.5h-9.6v-44.5H633v-8.2h42V509.6z"/>
		<path class="st2" d="M716,546.4l0.5,7.2c-4.6,0.4-12.4,0.6-23.2,0.6c-3.5,0-6.2-0.9-8.2-2.7c-2-1.8-3-4.2-3.1-7.3v-33
			c0.1-3.1,1.1-5.5,3.1-7.3c2-1.8,4.7-2.7,8.2-2.7c10.8,0,18.6,0.2,23.2,0.6l-0.5,7.3h-20.6c-1.4,0-2.4,0.3-2.9,1
			c-0.6,0.7-0.9,1.8-0.9,3.4v9.2h21.6v7.3h-21.6V542c0,1.6,0.3,2.8,0.9,3.4c0.6,0.7,1.6,1,2.9,1H716z"/>
		<path class="st2" d="M760.2,545.9l0.8,7.2c-4.2,1.3-9.6,2-16.2,2c-7.9,0-13.4-2-16.6-6.1c-3.2-4.1-4.8-11.1-4.8-21.1
			s1.6-17.1,4.8-21.1c3.2-4.1,8.7-6.1,16.6-6.1c5.8,0,10.9,0.6,15.1,1.7l-0.9,7.2c-4.4-0.4-9.2-0.5-14.2-0.5c-4.4,0-7.4,1.3-9,4
			c-1.6,2.7-2.4,7.6-2.4,14.8c0,7.2,0.8,12.2,2.4,14.8c1.6,2.7,4.6,4,9,4C751.4,546.6,756.5,546.4,760.2,545.9z"/>
		<path class="st2" d="M809.3,501.5v52.6h-9.5V530h-20.8v24.1h-9.5v-52.6h9.5v20.7h20.8v-20.7H809.3z"/>
		<path class="st2" d="M863.9,501.5v49.1c0,2.3-1.2,3.5-3.5,3.5h-7.6c-1.8,0-3.2-1-4-2.9l-14.8-32.3c-1.8-3.8-2.8-6.4-3.1-7.9H830
			c0.3,2.1,0.5,4.8,0.5,7.9v35.1h-9.4V505c0-2.3,1.2-3.5,3.6-3.5h7.4c1,0,1.8,0.2,2.4,0.7c0.6,0.5,1.1,1.2,1.6,2.2l14.3,31.3
			c0.2,0.4,0.7,1.6,1.6,3.6c0.9,2,1.6,3.6,2.1,4.7h0.9c-0.3-3.2-0.4-6.1-0.4-8.5v-34H863.9z"/>
		<path class="st2" d="M885.2,554.1h-9.5v-52.6h9.5V554.1z"/>
		<path class="st2" d="M911.1,530.4h-5.2c0.4,1.6,0.5,3.4,0.5,5.2v18.5h-9.5v-52.6h9.5V517c0,2.2-0.2,4.3-0.5,6.1h5.2l14.4-21.6
			h10.4l-14.2,21.2c-0.9,1.4-2,2.7-3.5,4v0.2c1.8,1.5,3.2,3,4.1,4.5l14.6,22.7h-10.7L911.1,530.4z"/>
		<path class="st2" d="M986,539.2h-19.5l-4.3,14.9h-9.8l15.8-50.1c0.5-1.7,1.6-2.5,3.4-2.5h9.3c1.8,0,3,0.8,3.4,2.5l15.8,50.1h-9.8
			L986,539.2z M983.7,531.4l-5.3-18.2c-0.7-2.7-1.1-4.2-1.1-4.5h-2.1l-1.2,4.5l-5.3,18.2H983.7z"/>
		<path class="st2" d="M1045.7,501.5v32c0,7.9-1.5,13.4-4.4,16.7c-2.9,3.3-8,4.9-15.3,4.9c-7.5,0-12.8-1.6-15.9-4.9
			c-3.1-3.3-4.6-8.8-4.6-16.7v-32h9.5v32c0,5,0.8,8.5,2.3,10.5c1.6,2,4.3,2.9,8.3,2.9c3.9,0,6.6-1,8.2-2.9c1.5-2,2.3-5.5,2.3-10.5
			v-32H1045.7z"/>
		<path class="st2" d="M1076.1,533.3l-10.6-3.4c-3.8-1.2-6.5-3.1-8.2-5.5c-1.6-2.5-2.4-5.7-2.4-9.7c0-5.7,1.3-9.5,4-11.4
			c2.7-1.8,7.4-2.7,14.1-2.7c6.5,0,12,0.6,16.6,1.8l-0.6,6.8c-5.8-0.2-11-0.3-15.6-0.3c-3.5,0-5.8,0.3-7,1c-1.2,0.7-1.8,2.4-1.8,5
			c0,2.2,0.4,3.7,1.3,4.6c0.8,0.9,2.4,1.7,4.6,2.4l10.1,3.1c4,1.3,6.8,3.1,8.4,5.6c1.6,2.5,2.4,5.7,2.4,9.7c0,5.8-1.4,9.7-4.1,11.7
			c-2.7,2-7.6,3-14.6,3c-5.8,0-11.5-0.6-17.1-1.7l0.6-7c8.9,0.2,14.5,0.3,16.7,0.3c3.5,0,5.8-0.4,7-1.2c1.2-0.8,1.8-2.5,1.8-5.2
			c0-2.2-0.4-3.8-1.2-4.7C1079.7,534.7,1078.2,533.9,1076.1,533.3z"/>
		<path class="st2" d="M1150.9,546.4l0.5,7.2c-4.6,0.4-12.4,0.6-23.2,0.6c-3.5,0-6.2-0.9-8.2-2.7c-2-1.8-3-4.2-3.1-7.3v-33
			c0-3.1,1.1-5.5,3.1-7.3c2-1.8,4.7-2.7,8.2-2.7c10.8,0,18.6,0.2,23.2,0.6l-0.5,7.3h-20.6c-1.4,0-2.4,0.3-2.9,1
			c-0.6,0.7-0.9,1.8-0.9,3.4v9.2h21.6v7.3h-21.6V542c0,1.6,0.3,2.8,0.9,3.4c0.6,0.7,1.6,1,2.9,1H1150.9z"/>
		<path class="st2" d="M1170.2,554.1h-9.5v-52.6h9.5V554.1z"/>
		<path class="st2" d="M1224.7,501.5v49.1c0,2.3-1.2,3.5-3.5,3.5h-7.6c-1.8,0-3.2-1-4-2.9l-14.8-32.3c-1.8-3.8-2.8-6.4-3.1-7.9h-0.9
			c0.3,2.1,0.5,4.8,0.5,7.9v35.1h-9.4V505c0-2.3,1.2-3.5,3.6-3.5h7.4c1,0,1.8,0.2,2.4,0.7c0.6,0.5,1.1,1.2,1.6,2.2l14.3,31.3
			c0.2,0.4,0.7,1.6,1.6,3.6c0.9,2,1.6,3.6,2.1,4.7h0.9c-0.3-3.2-0.4-6.1-0.4-8.5v-34H1224.7z"/>
		<path class="st2" d="M1270.1,546.4l0.5,7.2c-4.6,0.4-12.4,0.6-23.2,0.6c-3.5,0-6.2-0.9-8.2-2.7c-2-1.8-3-4.2-3.1-7.3v-33
			c0-3.1,1.1-5.5,3.1-7.3c2-1.8,4.7-2.7,8.2-2.7c10.8,0,18.6,0.2,23.2,0.6l-0.5,7.3h-20.6c-1.4,0-2.4,0.3-2.9,1
			c-0.6,0.7-0.9,1.8-0.9,3.4v9.2h21.6v7.3h-21.6V542c0,1.6,0.3,2.8,0.9,3.4c0.6,0.7,1.6,1,2.9,1H1270.1z"/>
		<path class="st2" d="M1319.2,554.1H1309l-4.2-16.3c-1-3.2-3-4.7-6.1-4.7l-9.5-0.1v21.1h-9.5v-52.6c4.5-0.5,10.9-0.7,19.1-0.7
			c6.7,0,11.4,1.1,14.1,3.3c2.8,2.2,4.2,6.2,4.2,12.1c0,4.1-0.8,7.2-2.3,9.3c-1.5,2.2-4,3.5-7.6,3.9v0.4c1.5,0.4,2.9,1.2,4.3,2.4
			c1.3,1.3,2.2,3.1,2.7,5.3L1319.2,554.1z M1289.3,525.2h9.5c3.4-0.1,5.7-0.7,7-1.8c1.2-1.2,1.9-3.4,1.9-6.6c0-3.2-0.6-5.4-1.9-6.5
			c-1.2-1.1-3.6-1.7-7-1.7h-9.5V525.2z"/>
		<path class="st2" d="M1384.5,501.5v52.6h-9.5V530h-20.8v24.1h-9.5v-52.6h9.5v20.7h20.8v-20.7H1384.5z"/>
		<path class="st2" d="M1424.4,539.2h-19.5l-4.3,14.9h-9.8l15.8-50.1c0.5-1.7,1.6-2.5,3.4-2.5h9.3c1.8,0,3,0.8,3.4,2.5l15.8,50.1
			h-9.8L1424.4,539.2z M1422.2,531.4l-5.3-18.2c-0.7-2.7-1.1-4.2-1.1-4.5h-2.1l-1.2,4.5l-5.3,18.2H1422.2z"/>
		<path class="st2" d="M1487.6,501.5v49.1c0,2.3-1.2,3.5-3.5,3.5h-7.6c-1.8,0-3.2-1-4-2.9l-14.8-32.3c-1.8-3.8-2.8-6.4-3.1-7.9h-0.9
			c0.3,2.1,0.5,4.8,0.5,7.9v35.1h-9.4V505c0-2.3,1.2-3.5,3.6-3.5h7.4c1,0,1.8,0.2,2.4,0.7c0.6,0.5,1.1,1.2,1.6,2.2l14.3,31.3
			c0.2,0.4,0.7,1.6,1.6,3.6c0.9,2,1.6,3.6,2.1,4.7h0.9c-0.3-3.2-0.4-6.1-0.4-8.5v-34H1487.6z"/>
		<path class="st2" d="M1499.3,554.1v-52.6c7-0.5,13.5-0.7,19.7-0.7c8,0,13.6,2,16.7,5.9s4.8,11,4.8,21.1c0,10.2-1.6,17.2-4.8,21.1
			c-3.2,3.9-8.8,5.9-16.7,5.9C1512.9,554.8,1506.3,554.6,1499.3,554.1z M1508.9,508.8v37.8c4,0.1,7.3,0.2,10.1,0.2
			c4.4,0,7.4-1.4,9-4.1c1.6-2.7,2.4-7.7,2.4-14.9c0-7.2-0.8-12.2-2.5-15c-1.7-2.7-4.6-4.1-9-4.1c-1.4,0-3.2,0-5.4,0
			C1511.4,508.8,1509.8,508.8,1508.9,508.8z"/>
	</g>
</g>
</svg>
